<svg width="6" height="12" viewBox="0 0 6 12" fill="none" xmlns="http://www.w3.org/2000/svg">
<path d="M1.18507 0.454627C1.18507 0.454627 2.62268e-07 2 3.14722e-07 2.4C3.67176e-07 2.8 0.0441441 2.88457 0.251955 3.13411C1.20951 4.29999 1.90629 5.22042 1.91037 5.99768C1.91037 6.76266 1.20952 7.68309 0.251956 8.86125C0.0441449 9.11079 7.29597e-07 9.2 7.82051e-07 9.6C8.34504e-07 10 1.18507 11.5448 1.18507 11.5448L1.36843 11.7575C1.61291 12.0603 2.30562 12.3753 3.6136 10.7226C4.28286 9.909 4.89034 9.04614 5.43093 8.14127C5.82856 7.49496 6.02571 6.74452 5.99731 5.98541C6.02158 5.23449 5.82455 4.49308 5.43093 3.85409C4.89034 2.94922 4.28286 2.08636 3.6136 1.27279C2.30561 -0.363537 1.61291 -0.0649067 1.36843 0.237814L1.18507 0.454627Z" fill="white"/>
</svg>
