<svg width="6" height="12" viewBox="0 0 6 12" fill="none" xmlns="http://www.w3.org/2000/svg">
<path d="M4.81493 11.5454C4.81493 11.5454 6 10 6 9.6C6 9.2 5.95586 9.11543 5.74805 8.86589C4.79049 7.70001 4.09371 6.77958 4.08963 6.00232C4.08963 5.23734 4.79049 4.31691 5.74805 3.13875C5.95586 2.88921 6 2.8 6 2.4C6 2 4.81493 0.455175 4.81493 0.455175L4.63157 0.242455C4.38709 -0.0602648 3.69438 -0.375257 2.3864 1.27743C1.71714 2.091 1.10966 2.95386 0.569074 3.85873C0.171445 4.50504 -0.0257103 5.25548 0.00268755 6.01459C-0.0215789 6.76551 0.175447 7.50692 0.569074 8.14591C1.10966 9.05078 1.71714 9.91364 2.3864 10.7272C3.69439 12.3635 4.38709 12.0649 4.63157 11.7622L4.81493 11.5454Z" fill="white"/>
</svg>
