<svg width="36" height="19" viewBox="0 0 36 19" fill="none" xmlns="http://www.w3.org/2000/svg">
<path d="M22.3621 0.816403L20.5049 11.0957C20.467 11.4296 20.1638 11.6894 19.7848 11.541H1.17496C0.530627 11.541 0 11.0214 0 10.3906C0 9.75973 0.530627 9.2402 1.17496 9.2402H4.35872C5.00305 9.20309 5.53368 8.68356 5.53368 8.0527C5.53368 7.42185 5.00305 6.90232 4.35872 6.90232H2.38782C1.74349 6.90232 1.21286 6.38279 1.21286 5.75193C1.21286 5.12108 1.74349 4.60155 2.38782 4.60155H5.57158C6.21591 4.60155 6.74654 4.08202 6.74654 3.45116C6.74654 2.8203 6.21591 2.30077 5.57158 2.30077H3.60068C2.95635 2.30077 2.42572 1.78124 2.42572 1.15039C2.42572 0.519529 2.95635 0 3.60068 0H21.6799C22.0968 0 22.4379 0.408202 22.3621 0.816403Z" fill="white"/>
<path fill-rule="evenodd" clip-rule="evenodd" d="M31.4586 9.31449L35.0214 9.79691C35.7036 9.87113 36.1205 10.4649 35.9689 11.17L35.173 15.586C35.1351 15.9199 34.8319 16.1426 34.4907 16.1426H32.7094C32.2924 17.7383 30.7006 19 29.0329 19C27.4031 19 26.266 17.7383 26.4176 16.1426H9.9303C9.51338 17.7383 7.8836 19 6.25382 19C4.62403 19 3.48698 17.7383 3.63858 16.1426H2.16041C1.74349 16.1426 1.40237 15.7344 1.47817 15.3262L1.85719 13.211C1.8951 12.877 2.19831 12.6543 2.53943 12.6543H20.6565C20.9977 12.6543 21.263 12.4317 21.3388 12.0977L22.7032 4.71295C22.7411 4.37896 23.0444 4.15631 23.3855 4.15631H27.5168C28.6917 4.15631 29.6393 4.75006 30.0183 5.71489L31.4586 9.31449ZM6.51913 17.5156C7.46668 17.5156 8.33842 16.7734 8.49003 15.8828C8.67954 14.9922 8.0352 14.25 7.12556 14.25C6.17801 14.25 5.30627 14.9922 5.15466 15.8828C4.96515 16.7734 5.60948 17.5156 6.51913 17.5156ZM24.712 6.08599L24.1435 9.20316H29.1087L28.0853 6.67974C27.9337 6.30864 27.5547 6.08599 27.1378 6.08599H24.712ZM29.2982 17.5156C30.2457 17.5156 31.1175 16.7734 31.2691 15.8828C31.4207 14.9922 30.8522 14.25 29.9046 14.25C28.9571 14.25 28.0853 14.9922 27.9337 15.8828C27.7442 16.7734 28.3506 17.5156 29.2982 17.5156Z" fill="white"/>
</svg>
