<svg width="34" height="23" viewBox="0 0 34 23" fill="none" xmlns="http://www.w3.org/2000/svg">
<path d="M7.07388 23C8.81852 23 10.2328 21.5776 10.2328 19.823C10.2328 18.0684 8.81852 16.646 7.07388 16.646C5.32923 16.646 3.91492 18.0684 3.91492 19.823C3.91492 21.5776 5.32923 23 7.07388 23Z" fill="#CCCCCC"/>
<path d="M16.5252 0H2.57337C1.1529 0 0 1.15801 0 2.58807V17.2342C0 18.6635 1.1529 19.823 2.57337 19.823H3.0069C3.0069 17.568 4.83092 15.7328 7.07385 15.7328C9.31678 15.7328 11.1408 17.568 11.1408 19.823H16.5252C17.9456 19.823 19.0985 18.6635 19.0985 17.2342V2.58807C19.0978 1.15875 17.9449 0 16.5252 0Z" fill="#CCCCCC"/>
<path d="M27.492 23C29.2366 23 30.6509 21.5776 30.6509 19.823C30.6509 18.0684 29.2366 16.646 27.492 16.646C25.7473 16.646 24.333 18.0684 24.333 19.823C24.333 21.5776 25.7473 23 27.492 23Z" fill="#CCCCCC"/>
<path d="M28.1946 2.75122H22.6348C21.4103 2.75122 20.4189 3.74895 20.4189 4.97975V17.5937C20.4189 18.8245 21.4103 19.8229 22.6348 19.8229H23.4251C23.4251 17.5679 25.2499 15.7327 27.4928 15.7327C29.735 15.7327 31.559 17.5679 31.559 19.8229H31.7835C33.008 19.8229 34.0001 18.8245 34.0001 17.5937V8.58982L28.1946 2.75122ZM31.1036 11.9653C30.1963 12.8873 28.7195 12.8954 27.8028 11.9845L24.2827 8.48394C23.3659 7.5715 23.3579 6.08557 24.2644 5.16283C25.1702 4.24083 26.6491 4.23274 27.5659 5.14518L31.0853 8.6457C32.0013 9.55667 32.0094 11.0433 31.1036 11.9653Z" fill="#CCCCCC"/>
</svg>
