<svg width="36" height="24" viewBox="0 0 36 24" fill="none" xmlns="http://www.w3.org/2000/svg">
<path d="M35.6127 15.85H25.5229C25.4732 15.6 25.4235 15.4 25.3241 15.15L25.2743 15.1L25.3241 15.05C26.169 14.3 26.6661 13.2 26.6661 12.1C26.6661 10.95 26.169 9.9 25.3241 9.1L25.2743 9.05L25.3241 9C25.4235 8.75 25.5229 8.5 25.5726 8.25H35.6127C35.9607 8.25 36.1098 8.65 35.9109 8.9L33.4755 11.95C33.3761 12.05 33.3761 12.2 33.4755 12.3L35.9109 15.25C36.1098 15.5 35.9109 15.85 35.6127 15.85ZM0.521889 13.2C-0.173963 12.55 -0.173963 11.45 0.521889 10.8L0.969223 10.4C1.46626 9.95 1.66507 9.2 1.36685 8.6L1.11833 8C0.770407 7.1 1.21774 6.1 2.16211 5.85L2.75856 5.7C3.40471 5.5 3.90174 4.95 3.90174 4.25L3.95145 3.6C4.00115 2.75 4.697 2.1 5.54197 2.1C5.64137 2.1 5.74078 2.1 5.84019 2.15L6.43663 2.25C6.53604 2.25 6.63545 2.25 6.73486 2.25C7.2816 2.25 7.82834 1.95 8.12656 1.4L8.42478 0.85C8.72301 0.3 9.26975 0 9.81649 0C10.1147 0 10.4626 0.0999999 10.7609 0.3L11.2579 0.65C11.5561 0.85 11.8543 0.95 12.2023 0.95C12.5005 0.95 12.8484 0.85 13.1466 0.65L13.6437 0.3C13.9419 0.0999999 14.2401 0 14.5383 0C15.0851 0 15.6318 0.3 15.93 0.85L16.2283 1.4C16.5265 1.9 17.0235 2.25 17.62 2.25C17.7194 2.25 17.8188 2.25 17.8685 2.25L18.4649 2.15C18.5643 2.15 18.6638 2.15 18.7632 2.15C19.6081 2.15 20.304 2.8 20.3537 3.65L20.4034 4.3C20.4531 5 20.9004 5.55 21.5466 5.75L22.143 5.9C23.0377 6.15 23.5347 7.15 23.1868 8.05L22.9383 8.65C22.6898 9.3 22.8389 10 23.3359 10.45L23.7832 10.85C24.4791 11.5 24.4791 12.6 23.7832 13.25L23.3359 13.65C22.8389 14.1 22.64 14.85 22.9383 15.45L23.1868 16.05C23.5347 16.95 23.0874 17.95 22.143 18.2L21.5466 18.35C20.9004 18.55 20.4034 19.1 20.4034 19.8L20.3537 20.45C20.304 21.3 19.6081 21.95 18.7632 21.95C18.6638 21.95 18.5643 21.95 18.4649 21.9L17.8685 21.8C17.7691 21.8 17.6697 21.75 17.5703 21.75C17.0235 21.75 16.4768 22.05 16.1786 22.6L15.8803 23.15C15.5821 23.7 15.0354 24 14.4886 24C14.1904 24 13.8425 23.9 13.5443 23.7L13.0472 23.35C12.749 23.15 12.4508 23.05 12.1029 23.05C11.8046 23.05 11.4567 23.15 11.1585 23.35L10.6615 23.7C10.3632 23.9 10.065 24 9.76678 24C9.22004 24 8.6733 23.7 8.37508 23.15L8.07686 22.6C7.77863 22.1 7.2816 21.75 6.68515 21.75C6.58575 21.75 6.48634 21.75 6.43663 21.75L5.84019 21.85C5.74078 21.85 5.64137 21.85 5.59167 21.85C4.74671 21.85 4.05085 21.2 4.00115 20.35L3.90174 19.8C3.85204 19.1 3.40471 18.55 2.75856 18.35L2.16211 18.2C1.26745 17.95 0.770407 16.95 1.11833 16.05L1.36685 15.45C1.61537 14.8 1.46626 14.1 0.969223 13.65L0.521889 13.2ZM7.08278 12.4L8.92182 14.25L10.8603 16.2L12.7987 14.25L17.2223 9.85L15.2839 7.9L10.8603 12.3L9.02123 10.45L7.08278 12.4Z" fill="#CCCCCC"/>
</svg>
