<svg width="32" height="18" viewBox="0 0 32 18" fill="none" xmlns="http://www.w3.org/2000/svg">
<path d="M30 2.89977e-05L1.96875 0C0.875 0 0 0.878049 0 1.97561V16.0244C0 17.122 0.875 18 1.96875 18L30 18C31.0938 18 31.9688 17.122 31.9688 16.0244V1.97564C31.9688 0.878078 31.0938 2.89977e-05 30 2.89977e-05ZM12.2937 2.39271C13.9125 2.39271 15.2469 3.73174 15.2469 5.35613C15.2469 6.98052 13.9125 8.31954 12.2937 8.31954C10.675 8.31954 9.34063 6.98052 9.34063 5.35613C9.34063 3.73174 10.6531 2.39271 12.2937 2.39271ZM10.4563 15.3439C10.2156 15.3439 9.99687 15.2561 9.84375 15.0805C9.69063 14.9049 9.58125 14.6854 9.58125 14.4659C9.58125 14.2464 9.66875 14.0049 9.84375 13.8512L20.7812 2.85369C21.1094 2.52442 21.6781 2.52442 22.0281 2.85369C22.2031 3.0293 22.2906 3.24881 22.2906 3.46832C22.2906 3.68783 22.2031 3.9293 22.0281 4.08296L11.0687 15.1025C10.8937 15.2561 10.675 15.3439 10.4563 15.3439ZM19.5125 15.5634C17.8937 15.5634 16.5594 14.2244 16.5594 12.6C16.5594 10.9756 17.8937 9.63661 19.5125 9.63661C21.1312 9.63661 22.4656 10.9756 22.4656 12.6C22.4656 14.2464 21.1531 15.5634 19.5125 15.5634Z" fill="#CCCCCC"/>
<path d="M19.5125 11.3927C18.8563 11.3927 18.3094 11.9415 18.3094 12.6C18.3094 13.2586 18.8563 13.8074 19.5125 13.8074C20.1688 13.8074 20.7156 13.2586 20.7156 12.6C20.7156 11.9415 20.1688 11.3927 19.5125 11.3927Z" fill="#CCCCCC"/>
<path d="M12.2938 6.56345C12.95 6.56345 13.4969 6.01467 13.4969 5.35613C13.4969 4.6976 12.95 4.14882 12.2938 4.14882C11.6375 4.14882 11.0906 4.6976 11.0906 5.35613C11.0906 6.01467 11.6156 6.56345 12.2938 6.56345Z" fill="#CCCCCC"/>
</svg>
