<svg width="187" height="56" viewBox="0 0 187 56" fill="none" xmlns="http://www.w3.org/2000/svg">
<path d="M19.5687 29.9703C19.6468 29.6305 19.6874 29.2835 19.6899 28.9352C19.6856 28.59 19.6433 28.2463 19.5637 27.9101H12.8085C12.7336 28.247 12.693 28.5904 12.6874 28.9352C12.6928 29.2833 12.7334 29.63 12.8085 29.9703H19.5687Z" fill="#401E17"/>
<path d="M21.2045 48.9576L23.7289 48.4277C23.9005 47.7546 23.9005 47.0504 23.7289 46.3774H18.5893V31.2183H13.788V55.1827C13.7893 55.3329 13.8511 55.4765 13.9598 55.5822C14.0685 55.6879 14.2155 55.7472 14.3686 55.7472H18.0087C18.1618 55.7472 18.3087 55.6879 18.4175 55.5822C18.5262 55.4765 18.588 55.3329 18.5893 55.1827V53.6078H23.6935C23.8651 52.9364 23.8651 52.2339 23.6935 51.5625L21.1692 51.0277C20.8107 50.9484 20.3866 50.7701 20.3866 50.2551V49.7301C20.3866 49.2349 20.8107 49.0368 21.1692 48.9576" fill="#401E17"/>
<path d="M31.3524 12.5925C30.0321 10.9771 28.5745 9.47442 26.9954 8.10068C25.6322 6.84278 24.9052 7.25878 24.5265 7.54106L24.0974 7.87782L19.9019 11.2801C20.0967 11.7361 20.4079 12.1352 20.8057 12.4389L21.6235 11.9437C22.5525 11.4039 23.1382 10.9532 23.749 11.5525C24.6225 12.4092 25.3697 13.1768 25.8443 13.7067C25.9604 13.8405 26.3946 14.2713 26.0109 14.6675C23.489 17.0692 20.7056 19.1916 17.7108 20.9966C17.25 21.2607 16.7296 21.4087 16.1962 21.4275C15.6627 21.4096 15.1421 21.2615 14.6816 20.9966C11.679 19.192 8.88867 17.0678 6.36135 14.6625C5.97765 14.2664 6.41184 13.8355 6.52796 13.7018C7.00254 13.1719 7.74974 12.4043 8.62317 11.5475C9.2492 10.9532 9.82476 11.3989 10.7487 11.9388L11.5666 12.434C11.9671 12.1331 12.279 11.7331 12.4703 11.2751L8.27986 7.87782L7.85072 7.54106C7.47206 7.25878 6.7501 6.84278 5.38191 8.10068C3.79747 9.47379 2.33483 10.9765 1.00974 12.5925C0.0807791 13.7365 0 14.1128 0 14.9646C0.00532872 15.588 0.261131 16.1842 0.711866 16.6237C2.68627 18.4554 4.77001 20.1703 6.95205 21.7593C11.8341 25.3448 13.6365 26.355 14.5655 26.5333C15.1017 26.615 15.6435 26.6564 16.1861 26.6571C16.7287 26.6562 17.2705 26.6148 17.8067 26.5333C18.7357 26.355 20.5381 25.3448 25.4252 21.7593C27.6065 20.1693 29.6902 18.4545 31.6654 16.6237C31.8902 16.4069 32.0692 16.1488 32.1922 15.8642C32.3152 15.5795 32.3798 15.2738 32.3823 14.9646C32.3823 14.1128 32.2813 13.7365 31.3726 12.5925" fill="#401E17"/>
<path d="M9.36027 6.7685L11.7231 8.69496C12.0411 8.42258 12.3592 8.15516 12.6672 7.90259C14.106 6.73878 15.242 5.89193 16.2013 5.88698C17.1454 5.88698 18.2813 6.73878 19.7353 7.90259C20.0433 8.15516 20.3614 8.42258 20.6794 8.69496L23.0473 6.7685L23.3098 6.54564C23.6834 6.2485 24.0722 5.4066 22.0325 3.8169C21.0284 3.00349 19.9635 2.26517 18.8468 1.60815C18.0491 1.12488 17.123 0.885256 16.1861 0.919771C15.2594 0.890278 14.3443 1.12974 13.5557 1.60815C12.439 2.26517 11.3741 3.00349 10.37 3.8169C8.35054 5.4066 8.71909 6.2485 9.09269 6.54564L9.36027 6.7685Z" fill="#401E17"/>
<path d="M182.606 17.3715C181.652 17.3715 179.693 16.9852 179.693 14.5784C179.693 12.642 180.996 11.8496 182.53 11.8496C182.907 11.8289 183.284 11.8873 183.636 12.0207C183.988 12.1541 184.307 12.3596 184.572 12.6234C184.836 12.8872 185.04 13.2033 185.171 13.5507C185.301 13.898 185.355 14.2686 185.327 14.6378C185.327 16.4157 184.156 17.3715 182.606 17.3715ZM182.51 11.2355C180.491 11.2355 178.946 12.4637 178.946 14.6378C178.946 17.1536 180.93 17.9856 182.53 17.9856C184.499 17.9856 186.065 16.7871 186.065 14.6378C186.065 12.1616 184.237 11.2355 182.53 11.2355" fill="#401E17"/>
<path d="M182.152 14.3803H181.904V13.1026H182.227C182.808 13.1026 182.995 13.2907 182.995 13.7464C182.995 14.202 182.697 14.3803 182.152 14.3803ZM183.04 14.7616C183.26 14.6874 183.45 14.5458 183.582 14.3577C183.714 14.1695 183.781 13.9448 183.772 13.7166C183.772 12.949 183.268 12.6123 182.541 12.6123H181.193V14.8408L181.152 16.2721H181.93L181.904 14.8755H182.041C182.119 14.8853 182.199 14.8853 182.278 14.8755C182.516 15.2618 182.794 15.6235 183.106 15.9551C183.262 16.103 183.449 16.2163 183.654 16.2872C183.858 16.3581 184.076 16.385 184.292 16.3662L184.358 16.0145C184.111 15.9191 183.891 15.7661 183.717 15.5688C183.47 15.3261 183.244 15.0644 183.04 14.7864" fill="#401E17"/>
<path d="M69.364 36.2399H59.9027C59.8311 35.7475 59.789 35.2515 59.7765 34.7542L60.756 34.4224C62.0131 34.0312 62.1948 32.3821 62.0434 31.0598L60.8216 22.4377L60.5136 19.8823H60.3622L54.7228 35.9279L51.1887 36.9184L45.5039 19.7387H45.3221L45.0444 22.1753L43.3632 32.7881C43.2723 33.3279 43.3632 33.6598 43.6964 33.7489L46.3924 34.6502C46.4103 35.1829 46.3697 35.7158 46.2713 36.2399H37.9409C37.8439 35.7507 37.8033 35.2524 37.8198 34.7542L38.9204 34.2144C39.3522 33.9676 39.7223 33.6291 40.0036 33.2238C40.2849 32.8185 40.4702 32.3566 40.546 31.872L43.0704 18.7433C43.1454 18.4351 43.0985 18.1105 42.9392 17.8348C42.78 17.5591 42.5202 17.3529 42.2121 17.2576L40.2381 16.6237C40.2354 16.0816 40.2759 15.5401 40.3592 15.0043H48.5078L52.2742 26.2411L53.4707 30.203H53.7433L55.061 26.1173L59.1303 15.0043H66.8851C66.9835 15.5284 67.0241 16.0613 67.0062 16.594L65.4916 16.9852C64.7545 17.1932 64.1436 17.9162 64.386 19.2385L66.8699 32.7881C66.9061 33.0687 67.0232 33.3334 67.2074 33.5509C67.3917 33.7685 67.6354 33.9299 67.9099 34.0163L69.47 34.6799C69.4728 35.2023 69.4323 35.724 69.3488 36.2399" fill="#401E17"/>
<path d="M84.399 20.5311L83.6972 18.0549H83.4801L82.6521 20.4865L80.6327 25.7112H86.0852L84.399 20.5311ZM94.8447 36.2399H85.6561C85.4847 35.6868 85.4113 35.1089 85.439 34.5314L87.2767 33.9272C87.5732 33.8454 87.8323 33.6668 88.0113 33.421C88.1903 33.1752 88.2785 32.8768 88.2612 32.5752C88.2472 32.2353 88.1738 31.9003 88.0441 31.5847L86.8375 27.9794H79.7138L78.3052 31.555C78.1945 31.8335 78.1314 32.128 78.1184 32.4266C78.1184 33.328 78.7344 33.7489 79.4412 33.9619L81.4303 34.5314C81.4549 35.1052 81.4023 35.6796 81.2738 36.2399H73.3121C73.197 35.7078 73.1462 35.1643 73.1606 34.6205C73.9032 34.0956 74.4946 33.3909 74.8772 32.5752L82.3189 15.4252L86.3579 14.4942L93.2493 32.4861C93.6779 33.315 94.2719 34.051 94.9962 34.6502C95.009 35.1841 94.9582 35.7176 94.8447 36.2399Z" fill="#401E17"/>
<path d="M114.388 34.2293L106.734 26.0579V27.8011L106.795 32.9367C106.825 33.5657 106.946 33.7786 107.466 33.8975L109.4 34.3927C109.428 35.0091 109.365 35.6262 109.213 36.2251H99.6561C99.5814 35.6886 99.551 35.147 99.5653 34.6057L101.039 34.155C101.423 34.0147 101.756 33.7656 101.995 33.4393C102.234 33.113 102.369 32.7243 102.382 32.3226L102.448 27.8655V18.9364C102.428 18.5476 102.297 18.1722 102.069 17.8534C101.841 17.5345 101.526 17.2851 101.161 17.1338L99.7521 16.594C99.7076 16.0625 99.7381 15.5275 99.8429 15.0043H109.274C109.346 15.574 109.336 16.1509 109.244 16.7178L107.835 17.1338C107.007 17.3764 106.734 18.1589 106.734 18.9364V25.3051L113.414 19.1791C113.565 19.0587 113.688 18.9081 113.775 18.7373C113.862 18.5665 113.911 18.3794 113.919 18.1886C113.943 17.9792 113.904 17.7673 113.806 17.5796C113.708 17.3919 113.556 17.2368 113.368 17.1338L112.268 16.6831C112.235 16.1207 112.275 15.5565 112.389 15.0043H120.467V16.4157L110.839 24.5573L116.443 30.2377C117.995 31.9119 119.765 33.3773 121.709 34.5958L121.249 36.7302C119.568 36.6955 116.256 36.3093 114.388 34.254" fill="#401E17"/>
<path d="M144.499 36.2399H127.04C126.899 35.6598 126.846 35.0623 126.884 34.467L128.479 34.0807C129.216 33.8975 129.797 33.4468 129.797 32.7881L129.888 27.8606V18.9067C129.888 17.9162 129.519 17.5844 129.029 17.421L127.101 16.6385C127.043 16.0959 127.084 15.5477 127.222 15.0191H144.069V19.9715C143.428 20.0527 142.782 20.0924 142.136 20.0903C141.742 18.1985 140.975 17.6141 139.611 17.6141L134.164 17.4656V24.3444L142.474 24.1958V26.9592L134.179 26.8107V27.8903L134.295 33.8083L138.955 33.6895C141.126 33.63 142.656 32.699 143.363 30.7181L145.231 31.1093L144.499 36.2399Z" fill="#401E17"/>
<path d="M174.417 36.2399H164.648C164.54 35.7168 164.489 35.1839 164.496 34.6502L166.183 34.051C166.559 33.9068 166.877 33.648 167.092 33.3128C167.306 32.9775 167.405 32.5836 167.374 32.1889L167.435 27.8903V22.0614L156.777 31.8868C156.777 33.0556 156.928 33.8083 158.004 34.0807L160.175 34.6205C160.185 35.1657 160.124 35.71 159.993 36.2399H149.982C149.877 35.7262 149.825 35.2037 149.825 34.6799L151.34 34.1104C152.198 33.7786 152.476 33.2388 152.476 32.2483L152.536 27.8903V18.5155C152.584 18.1839 152.508 17.8467 152.322 17.5656C152.137 17.2845 151.854 17.0784 151.526 16.9852C151.526 16.9852 150.3 16.5345 149.931 16.4454C149.909 15.9617 149.951 15.4772 150.057 15.0043H159.145C159.276 15.4885 159.329 15.9898 159.301 16.49L157.787 16.9406C157.055 17.1486 156.777 17.5399 156.777 18.4709V28.6133L167.435 18.8176C167.43 18.6068 167.409 18.3966 167.374 18.1886C167.387 17.8854 167.285 17.5882 167.087 17.3548C166.889 17.1214 166.61 16.9685 166.304 16.9258L164.865 16.4305C164.781 15.9527 164.791 15.4634 164.895 14.9894H173.958C174.018 15.4824 174.028 15.9801 173.988 16.4751L172.554 16.9258C172.27 16.9867 172.019 17.1505 171.853 17.3846C171.686 17.6187 171.616 17.9058 171.656 18.1886V27.8903L171.777 32.5158C171.777 33.4171 171.958 33.838 172.418 33.9619L174.604 34.5958C174.645 35.152 174.582 35.711 174.417 36.2449" fill="#401E17"/>
<path d="M160.912 13.3799C158.706 13.3799 156.873 12.117 156.873 10.1361C156.873 8.93267 158.13 8.00163 159.357 7.70449C160.15 9.38334 160.488 10.7948 161.992 10.7948C163.497 10.7948 165.91 9.59629 167.5 8.31858L168.788 9.70029C167.718 10.7799 164.072 13.365 160.887 13.365" fill="#401E17"/>
<path d="M39.7383 44.7778H40.955L40.546 43.6883L40.3895 42.8612H40.3491L40.1674 43.6932L39.7383 44.7778ZM41.2175 45.6494H39.4252L38.9911 46.7587H37.8652L39.9503 41.529H40.7783L42.8684 46.7835H41.677L41.2175 45.6494Z" fill="#401E17"/>
<path d="M46.0996 45.9416C46.2369 45.9412 46.3738 45.9279 46.5086 45.902C46.628 45.881 46.7426 45.839 46.8468 45.7782C46.9416 45.7262 47.0229 45.6533 47.0841 45.5652C47.1347 45.4879 47.1673 45.4006 47.1795 45.3096C47.1918 45.2185 47.1834 45.1259 47.1549 45.0384C47.1265 44.9508 47.0787 44.8706 47.0149 44.8033C46.9512 44.736 46.8731 44.6833 46.7862 44.649C46.6658 44.5986 46.538 44.5668 46.4076 44.5549C46.2713 44.5549 46.1248 44.5549 45.9835 44.5549H45.3625V45.9168H46.0996V45.9416ZM45.7411 43.6932H46.0138C46.0994 43.7018 46.1857 43.7018 46.2713 43.6932C46.4663 43.6392 46.6495 43.5502 46.8115 43.4307C46.8846 43.3782 46.9433 43.3085 46.982 43.2281C47.0208 43.1477 47.0386 43.059 47.0336 42.9702C47.0382 42.86 47.0082 42.7511 46.9478 42.6582C46.8936 42.5771 46.8164 42.5134 46.7256 42.4749C46.6262 42.4296 46.5209 42.3979 46.4126 42.3808C46.2915 42.3808 46.1753 42.3808 46.0542 42.3808H45.6503C45.5291 42.3808 45.4332 42.3808 45.3625 42.3808V43.7081L45.7411 43.6932ZM48.1746 42.7473C48.1738 42.8763 48.1551 43.0046 48.1191 43.1287C48.0896 43.2636 48.0367 43.3926 47.9626 43.51C47.8764 43.6236 47.7684 43.7195 47.6445 43.7923C47.4974 43.8786 47.3344 43.9358 47.1649 43.9606V44.0052C47.3276 44.0186 47.4875 44.0553 47.6395 44.1142C47.7832 44.1724 47.9137 44.2583 48.0232 44.3667C48.1339 44.4778 48.2214 44.609 48.2806 44.753C48.3461 44.9222 48.3787 45.102 48.3766 45.2829C48.3772 45.5341 48.2997 45.7794 48.1544 45.9862C48.0288 46.1883 47.8557 46.3581 47.6496 46.4814C47.429 46.6096 47.1885 46.7016 46.9377 46.7538C46.6675 46.813 46.3916 46.8429 46.1147 46.8429H45.2767C45.105 46.8429 44.9334 46.8429 44.7718 46.8083C44.6124 46.7961 44.454 46.7746 44.2972 46.7439V41.5786L44.6607 41.534L45.0949 41.4944H46.0693C46.328 41.4941 46.5863 41.514 46.8418 41.5538C47.0795 41.5854 47.311 41.6522 47.5284 41.7519C47.7277 41.8429 47.9011 41.9807 48.0333 42.153C48.1652 42.3439 48.2307 42.5714 48.2201 42.8018" fill="#401E17"/>
<path d="M54.122 42.5096H52.4357V46.7587H51.3099V42.5096H49.6185V41.5439H54.122V42.5096Z" fill="#401E17"/>
<path d="M56.505 44.1538C56.503 44.3919 56.5284 44.6295 56.5807 44.862C56.6274 45.0563 56.7058 45.2419 56.8129 45.4117C56.9104 45.5621 57.0461 45.685 57.2067 45.7683C57.381 45.8576 57.5756 45.902 57.7722 45.897C57.9493 45.9052 58.126 45.8727 58.2881 45.8022C58.4502 45.7318 58.5934 45.6252 58.7062 45.4909C58.9647 45.0935 59.0819 44.6234 59.0394 44.1538C59.0404 43.9209 59.0167 43.6885 58.9687 43.4605C58.9297 43.2623 58.8544 43.0727 58.7466 42.9008C58.6445 42.7401 58.5001 42.6093 58.3286 42.5221C58.1572 42.435 57.965 42.3947 57.7722 42.4056C57.5943 42.398 57.4172 42.4322 57.2556 42.5055C57.094 42.5787 56.9526 42.6888 56.8432 42.8266C56.5861 43.221 56.4673 43.6871 56.505 44.1538ZM55.3135 44.1538C55.3078 43.763 55.364 43.3737 55.4801 42.9999C55.5859 42.6845 55.7579 42.3943 55.9849 42.1481C56.1971 41.9151 56.4615 41.7337 56.7574 41.6182C57.0876 41.4943 57.4389 41.4338 57.7924 41.4399C58.1589 41.4318 58.5231 41.4976 58.8627 41.633C59.1611 41.7581 59.4256 41.9497 59.6352 42.1927C59.845 42.4435 60.0013 42.7332 60.0946 43.0445C60.2034 43.4044 60.2561 43.7784 60.2511 44.1538C60.2573 44.5417 60.1994 44.9281 60.0794 45.2978C59.977 45.6146 59.8046 45.9055 59.5746 46.1496C59.3633 46.3835 59.0986 46.5651 58.8021 46.6795C58.4809 46.8046 58.1379 46.8668 57.7924 46.8627C57.4237 46.8721 57.0571 46.8046 56.717 46.6646C56.4193 46.5456 56.1558 46.3569 55.9496 46.1149C55.7359 45.8629 55.5793 45.5691 55.4902 45.2532C55.3814 44.8967 55.3286 44.5259 55.3337 44.1538" fill="#401E17"/>
<path d="M63.5327 42.4353H63.2248C63.1447 42.4349 63.0649 42.4449 62.9875 42.465V44.0052H63.4671C63.6151 44.0128 63.7634 44.0128 63.9114 44.0052C64.0498 43.9872 64.1834 43.9435 64.3052 43.8765C64.4174 43.811 64.5111 43.7191 64.5778 43.609C64.6571 43.472 64.6956 43.3158 64.6889 43.1584C64.6944 43.0243 64.6593 42.8916 64.5879 42.777C64.522 42.6801 64.4315 42.6016 64.3254 42.5492C64.208 42.4915 64.0818 42.453 63.9518 42.4353C63.813 42.4154 63.673 42.4055 63.5327 42.4056V42.4353ZM61.8566 41.5637C62.0888 41.5241 62.3614 41.4944 62.6189 41.4696C62.8764 41.4449 63.1793 41.435 63.457 41.435C63.7444 41.4346 64.0313 41.4561 64.3153 41.4993C64.5875 41.5383 64.8507 41.6238 65.0928 41.7519C65.3239 41.8788 65.5185 42.0611 65.6582 42.2818C65.8179 42.5555 65.8949 42.8681 65.8804 43.1831C65.8909 43.4737 65.8249 43.7619 65.6885 44.0201C65.571 44.2467 65.3974 44.4408 65.1837 44.5846C64.967 44.7334 64.7239 44.8409 64.4668 44.9016C64.1958 44.9671 63.9178 45.0004 63.6388 45.0006H63.3157L63.1087 44.9957H62.9774V46.7538H61.8465L61.8566 41.5637Z" fill="#401E17"/>
<path d="M71.3683 46.5359C71.1674 46.6628 70.9425 46.7487 70.7069 46.7884C70.4288 46.8382 70.1466 46.863 69.8638 46.8627C69.5314 46.8641 69.2008 46.814 68.8844 46.7142C68.575 46.61 68.2924 46.441 68.0564 46.2189C67.806 45.9814 67.6098 45.6944 67.4808 45.377C67.332 44.9793 67.2618 44.5575 67.2738 44.134C67.2576 43.6942 67.3403 43.2562 67.5162 42.8513C67.6508 42.5451 67.8513 42.271 68.104 42.0479C68.3567 41.8248 68.6557 41.6579 68.9803 41.5588C69.2757 41.4656 69.5838 41.4172 69.8941 41.4151C70.1713 41.4137 70.4481 41.4336 70.7221 41.4746C70.913 41.5055 71.1006 41.5536 71.2825 41.6182L71.0603 42.5443C70.9199 42.4859 70.7722 42.4459 70.6211 42.4254C70.407 42.397 70.191 42.3837 69.9749 42.3858C69.7642 42.3819 69.5549 42.4189 69.3589 42.4948C69.1758 42.5614 69.0126 42.6721 68.8844 42.8167C68.7427 42.9742 68.6376 43.1601 68.5764 43.3614C68.4967 43.6113 68.4592 43.8722 68.4653 44.134C68.4622 44.3734 68.4945 44.6119 68.5612 44.8422C68.6214 45.0434 68.7227 45.2304 68.8591 45.3919C68.9957 45.5488 69.1689 45.6712 69.364 45.7484C69.5901 45.8375 69.8322 45.8813 70.0758 45.8772C70.2867 45.8802 70.497 45.8569 70.7019 45.8079C70.8576 45.7685 71.0084 45.712 71.1512 45.6395L71.3683 46.5359Z" fill="#401E17"/>
<path d="M74.3117 44.5549H74.0138V46.7587H72.888V41.5439H74.0138V43.8368L74.2764 43.7279L75.8768 41.5439H77.1592L75.4729 43.7279L75.0337 44.0102L75.488 44.3073L77.4166 46.7587H76.0232L74.3117 44.5549Z" fill="#401E17"/>
<path d="M82.2483 43.8814L82.3088 43.2178H82.2684L81.8847 43.8913L79.7037 46.7587H78.8656V41.5439H79.9915V44.3519L79.9158 45.0452H79.9612L80.3701 44.3519L82.531 41.5439H83.3691V46.7587H82.2483V43.8814Z" fill="#401E17"/>
<path d="M85.2169 41.5439H88.6449V42.5096H86.3427V43.6437H88.4329V44.6144H86.3427V45.7881H88.6853V46.7587H85.2169V41.5439Z" fill="#401E17"/>
<path d="M96.0918 43.8814L96.1523 43.2178H96.112L95.7283 43.8913L93.5472 46.7587H92.7091V41.5439H93.835V44.3519L93.7593 45.0452H93.8047L94.2136 44.3519L96.3745 41.5439H97.2176V46.7587H96.0918V43.8814Z" fill="#401E17"/>
<path d="M99.535 44.4707V43.6288H100.373L100.555 43.5991C100.735 43.5736 100.908 43.5094 101.06 43.4109C101.121 43.3633 101.171 43.3022 101.204 43.2326C101.237 43.163 101.253 43.0867 101.252 43.0098C101.266 42.9096 101.247 42.8075 101.196 42.719C101.146 42.6306 101.068 42.5605 100.974 42.5195C100.767 42.4325 100.543 42.3919 100.318 42.4007C100.197 42.4005 100.077 42.4105 99.9591 42.4304C99.8446 42.4448 99.7315 42.468 99.6208 42.4997C99.5198 42.5294 99.4239 42.5591 99.333 42.5938L99.121 42.6829L98.8433 41.747C98.9233 41.7097 99.006 41.6783 99.0907 41.6529C99.2164 41.6108 99.3445 41.5761 99.4744 41.5489C99.6208 41.5142 99.7773 41.4894 99.954 41.4647C100.121 41.4414 100.29 41.4298 100.459 41.43C100.696 41.4321 100.932 41.452 101.166 41.4894C101.383 41.528 101.592 41.5998 101.787 41.7024C101.98 41.799 102.141 41.9487 102.25 42.1334C102.358 42.318 102.409 42.5296 102.398 42.7424C102.4 42.9968 102.318 43.2451 102.165 43.4506C101.99 43.6941 101.732 43.8694 101.438 43.9458V44.0052C101.757 44.0407 102.052 44.1864 102.271 44.4163C102.477 44.6567 102.584 44.9643 102.569 45.278C102.576 45.5304 102.51 45.7795 102.377 45.9961C102.248 46.1954 102.076 46.3644 101.873 46.4913C101.653 46.6217 101.415 46.7186 101.166 46.7785C100.897 46.8381 100.623 46.868 100.348 46.8677C100.171 46.8778 99.9942 46.8778 99.8177 46.8677C99.6584 46.8549 99.5 46.8334 99.3431 46.8033C99.2096 46.784 99.0779 46.7541 98.9493 46.7142C98.8509 46.6846 98.7547 46.6482 98.6615 46.6052L98.9493 45.6494C99.1282 45.7215 99.3121 45.7811 99.4996 45.8277C99.7817 45.8979 100.072 45.9312 100.363 45.9267C100.482 45.9255 100.6 45.9122 100.716 45.8871C100.83 45.864 100.939 45.8239 101.039 45.7683C101.134 45.7112 101.215 45.6352 101.277 45.5454C101.34 45.4445 101.372 45.3272 101.368 45.2086C101.372 45.1052 101.347 45.0025 101.297 44.9115C101.251 44.8189 101.174 44.744 101.08 44.6986C100.951 44.6311 100.811 44.5859 100.666 44.5648C100.45 44.5309 100.233 44.5127 100.015 44.5104H99.5097L99.535 44.4707Z" fill="#401E17"/>
<path d="M107.603 45.7881V42.5195H106.305C106.295 43.2267 106.218 43.9314 106.073 44.6243C105.997 45.0289 105.872 45.423 105.699 45.798L107.603 45.7881ZM109.456 47.6848H108.658L108.547 46.7587H104.811L104.69 47.6848H103.892V45.7881H104.508C104.578 45.6735 104.641 45.5544 104.695 45.4315C104.804 45.1765 104.892 44.9132 104.957 44.6441C105.055 44.2208 105.129 43.7926 105.179 43.3614C105.246 42.7579 105.273 42.1508 105.26 41.5439H108.724V45.7881H109.456V47.6848Z" fill="#401E17"/>
<path d="M110.94 41.5439H114.368V42.5096H112.066V43.6437H114.156V44.6144H112.066V45.7881H114.403V46.7587H110.94V41.5439Z" fill="#401E17"/>
<path d="M119.311 42.5195H118.089C118.062 42.9949 118.037 43.4208 118.013 43.7972C117.983 44.1786 117.943 44.5203 117.897 44.8273C117.856 45.1 117.79 45.3686 117.7 45.6296C117.631 45.8511 117.529 46.0614 117.397 46.2536C117.324 46.3612 117.234 46.4566 117.13 46.5359C117.036 46.609 116.932 46.669 116.822 46.7142C116.721 46.7545 116.616 46.7844 116.509 46.8033C116.417 46.8205 116.324 46.8288 116.231 46.8281C116.126 46.8311 116.021 46.8211 115.918 46.7983C115.837 46.7749 115.757 46.7451 115.681 46.7092L115.802 45.7831C115.864 45.8083 115.931 45.8201 115.999 45.8178C116.088 45.8147 116.175 45.7945 116.256 45.7584C116.351 45.7153 116.432 45.6466 116.488 45.5603C116.585 45.4171 116.658 45.26 116.706 45.0947C116.779 44.8334 116.831 44.5668 116.862 44.2974C116.902 43.9755 116.943 43.5843 116.968 43.1287C116.993 42.673 117.019 42.1382 117.024 41.5538H120.442V46.7587H119.311V42.5195Z" fill="#401E17"/>
<path d="M125.662 43.8814L125.723 43.2178H125.687L125.298 43.8913L123.117 46.7587H122.279V41.5439H123.405V44.3519L123.329 45.0452H123.375L123.784 44.3519L125.945 41.5439H126.788V46.7587H125.662V43.8814Z" fill="#401E17"/>
<path d="M130.908 42.4353C130.769 42.4364 130.63 42.448 130.494 42.47C130.37 42.4884 130.251 42.5269 130.14 42.5839C130.04 42.6396 129.957 42.722 129.903 42.8216C129.84 42.939 129.811 43.0706 129.817 43.2029C129.812 43.333 129.839 43.4624 129.898 43.5793C129.953 43.6796 130.033 43.7647 130.13 43.8269C130.237 43.8924 130.355 43.9378 130.478 43.9607C130.62 43.9893 130.763 44.0025 130.908 44.0003H131.337V42.465H130.908V42.4353ZM132.463 46.7884H131.337V44.7184L130.741 44.862L129.529 46.7587H128.237L129.423 45.0502L129.928 44.7184C129.752 44.6797 129.582 44.618 129.423 44.5351C129.269 44.4534 129.131 44.3462 129.014 44.2182C128.894 44.0831 128.802 43.9268 128.742 43.7576C128.672 43.5653 128.638 43.3624 128.641 43.1584C128.634 42.883 128.698 42.6104 128.827 42.366C128.946 42.1508 129.12 41.9698 129.332 41.841C129.569 41.7016 129.829 41.6044 130.1 41.5538C130.416 41.4924 130.737 41.4625 131.059 41.4647H131.756L132.139 41.5043C132.255 41.5176 132.37 41.5375 132.483 41.5637L132.463 46.7884Z" fill="#401E17"/>
<path d="M140.015 43.8814L140.076 43.2178H140.036L139.652 43.8913L137.471 46.7587H136.633V41.5439H137.759V44.3519L137.683 45.0452H137.728L138.137 44.3519L140.293 41.5439H141.141V46.7587H140.015V43.8814Z" fill="#401E17"/>
<path d="M143.459 44.4707V43.6288H144.297L144.478 43.5991C144.65 43.5709 144.814 43.5068 144.958 43.4109C145.031 43.3582 145.09 43.2882 145.128 43.2074C145.166 43.1267 145.183 43.0378 145.177 42.9489C145.171 42.8601 145.142 42.7742 145.093 42.6991C145.044 42.6241 144.977 42.5623 144.897 42.5195C144.689 42.4318 144.463 42.3912 144.236 42.4007C144.116 42.4005 143.996 42.4105 143.878 42.4304C143.765 42.4442 143.653 42.4674 143.544 42.4997C143.447 42.5258 143.351 42.5573 143.257 42.5938C143.184 42.6181 143.113 42.6479 143.045 42.6829L142.767 41.747C142.846 41.7105 142.927 41.6791 143.009 41.6529C143.12 41.6132 143.252 41.5835 143.393 41.5489C143.534 41.5142 143.701 41.4894 143.898 41.4647C144.065 41.4412 144.234 41.4296 144.403 41.43C144.641 41.4322 144.879 41.452 145.115 41.4894C145.331 41.5288 145.541 41.6006 145.736 41.7024C145.927 41.8007 146.086 41.9509 146.194 42.1353C146.301 42.3196 146.352 42.5303 146.341 42.7424C146.343 42.9959 146.264 43.2436 146.114 43.4506C145.936 43.6942 145.677 43.8693 145.382 43.9458V44.0052C145.701 44.0394 145.997 44.1853 146.215 44.4163C146.425 44.655 146.533 44.9633 146.518 45.278C146.525 45.5304 146.459 45.7795 146.326 45.9961C146.197 46.1954 146.025 46.3644 145.821 46.4913C145.6 46.6222 145.36 46.7191 145.11 46.7785C144.843 46.8383 144.57 46.8682 144.297 46.8677C144.129 46.877 143.96 46.877 143.792 46.8677C143.632 46.8552 143.474 46.8337 143.317 46.8033C143.182 46.7834 143.049 46.7536 142.918 46.7142C142.82 46.6846 142.724 46.6482 142.631 46.6052L142.918 45.6494C143.099 45.7206 143.285 45.7802 143.474 45.8277C143.754 45.898 144.043 45.9313 144.332 45.9267C144.453 45.9255 144.573 45.9122 144.69 45.8871C144.802 45.864 144.909 45.8239 145.009 45.7683C145.104 45.7126 145.185 45.6364 145.246 45.5454C145.311 45.445 145.345 45.3278 145.342 45.2086C145.343 45.1054 145.319 45.0034 145.271 44.9115C145.223 44.8201 145.147 44.7457 145.054 44.6986C144.923 44.6304 144.781 44.5852 144.635 44.5648C144.42 44.5307 144.202 44.5125 143.984 44.5104H143.479L143.459 44.4707Z" fill="#401E17"/>
<path d="M151.925 44.5549H151.627V46.7587H150.507V41.5439H151.627V43.8368L151.895 43.7279L153.49 41.5439H154.773L153.091 43.7279L152.647 44.0102L153.102 44.3073L155.035 46.7587H153.642L151.925 44.5549Z" fill="#401E17"/>
<path d="M157.085 44.1538C157.083 44.3919 157.108 44.6295 157.161 44.862C157.204 45.0567 157.28 45.2427 157.388 45.4117C157.485 45.5621 157.621 45.685 157.782 45.7683C157.956 45.8576 158.151 45.902 158.347 45.897C158.524 45.906 158.701 45.8739 158.864 45.8033C159.026 45.7328 159.169 45.6258 159.281 45.4909C159.54 45.0935 159.657 44.6234 159.614 44.1538C159.618 43.9208 159.594 43.6882 159.544 43.4605C159.505 43.2623 159.429 43.0727 159.322 42.9008C159.222 42.7499 159.087 42.6243 158.928 42.5344C158.748 42.445 158.549 42.4007 158.347 42.4056C158.169 42.3984 157.992 42.4328 157.831 42.506C157.669 42.5792 157.528 42.6891 157.418 42.8266C157.163 43.2216 157.046 43.6876 157.085 44.1538ZM155.888 44.1538C155.884 43.768 155.941 43.3838 156.055 43.0147C156.163 42.7005 156.335 42.4108 156.56 42.1629C156.773 41.9311 157.037 41.7498 157.332 41.633C157.663 41.5097 158.014 41.4491 158.367 41.4548C158.735 41.4473 159.101 41.513 159.443 41.6479C159.739 41.7744 160.001 41.9658 160.21 42.2075C160.42 42.4593 160.577 42.7486 160.675 43.0593C160.781 43.4198 160.834 43.7934 160.831 44.1686C160.835 44.5564 160.777 44.9424 160.659 45.3126C160.555 45.6286 160.383 45.919 160.155 46.1644C159.94 46.397 159.674 46.5782 159.377 46.6943C159.056 46.8194 158.713 46.8817 158.367 46.8776C157.999 46.887 157.632 46.8194 157.292 46.6795C156.988 46.5566 156.72 46.3628 156.509 46.1149C156.298 45.8617 156.141 45.5683 156.05 45.2532C155.944 44.8961 155.891 44.5258 155.894 44.1538" fill="#401E17"/>
<path d="M164.653 41.5439H165.713V43.8467L166.011 43.7427L167.213 41.5439H168.49L167.137 43.8319L166.743 44.0894L167.223 44.4113L168.742 46.7587H167.379L166.041 44.5153H165.713V46.7587H164.653V44.4262L164.365 44.5351L163.027 46.7587H161.705L163.214 44.4856L163.663 44.1885L163.229 43.9062L161.816 41.5439H163.133L164.325 43.7576H164.653V41.5439Z" fill="#401E17"/>
<path d="M173.508 43.8814L173.564 43.2178H173.529L173.14 43.8913L170.959 46.7587H170.121V41.5439H171.252V44.3519L171.171 45.0452H171.216L171.63 44.3519L173.786 41.5439H174.629V46.7587H173.508V43.8814Z" fill="#401E17"/>
</svg>
