<svg width="18" height="10" viewBox="0 0 18 10" fill="none" xmlns="http://www.w3.org/2000/svg">
<path d="M17.7093 4.30102L13.6608 0.304419C13.5697 0.209782 13.4603 0.134102 13.3391 0.0818345C13.2179 0.0295673 13.0873 0.00177072 12.9551 8.18762e-05C12.8228 -0.00160696 12.6916 0.0228462 12.5691 0.0720009C12.4466 0.121156 12.3352 0.194018 12.2417 0.286296C12.1481 0.378574 12.0742 0.488402 12.0243 0.60931C11.9744 0.730218 11.9495 0.859762 11.9511 0.99031C11.9527 1.12086 11.9808 1.24977 12.0336 1.36946C12.0864 1.48914 12.163 1.59718 12.2588 1.6872L14.652 4.04607L0.991222 4.01442C0.728334 4.01442 0.476213 4.11751 0.290322 4.30102C0.104432 4.48453 0 4.73341 0 4.99293C0 5.25245 0.104432 5.50134 0.290322 5.68484C0.476213 5.86835 0.728334 5.97144 0.991222 5.97144L14.6298 6.00309L12.2588 8.3474C12.0806 8.53244 11.9828 8.77888 11.9861 9.03415C11.9895 9.28941 12.0938 9.53327 12.2767 9.7137C12.4596 9.89414 12.7068 9.99685 12.9653 9.99993C13.2239 10.003 13.4735 9.90621 13.6608 9.73018L17.7093 5.73358C17.8016 5.64294 17.8749 5.5351 17.9247 5.41631C17.9745 5.29752 17.9999 5.17015 17.9995 5.04158C18.0002 5.0335 18.0002 5.02538 17.9995 5.0173C18.0001 5.00922 18.0001 5.0011 17.9995 4.99302C17.9994 4.73351 17.895 4.48464 17.7093 4.30102Z" fill="#888888"/>
</svg>
