<svg width="13" height="13" viewBox="0 0 13 13" fill="none" xmlns="http://www.w3.org/2000/svg">
<path d="M12.7527 4.72818C12.5715 4.09495 12.2928 3.48782 11.9303 2.93837C11.5706 2.39443 11.1326 1.90405 10.6287 1.48923C10.1166 1.06753 9.54817 0.726878 8.93445 0.475509C8.31249 0.221393 7.65071 0.0689229 6.9807 0.0180997C6.30382 -0.0327235 5.61871 0.0235941 4.95968 0.185679C4.3185 0.342269 3.70066 0.600506 3.13636 0.943907C2.58031 1.28319 2.07368 1.70626 1.64119 2.19388C1.20733 2.68289 0.844862 3.23645 0.575758 3.83259C0.298417 4.44934 0.118557 5.1018 0.0416698 5.77486C-0.03659 6.45067 -0.00363846 7.13885 0.132286 7.80642C0.264092 8.45613 0.500244 9.08386 0.824267 9.66215C1.1428 10.2308 1.54783 10.7528 2.01876 11.202C2.49106 11.6539 3.03064 12.0357 3.61553 12.3269C4.2114 12.6236 4.85258 12.8269 5.51161 12.9272C5.83838 12.9766 6.16927 13 6.50016 13C7.17841 13 7.85803 12.897 8.50333 12.6854C9.12804 12.4808 9.72116 12.1827 10.2566 11.8008C10.7921 11.4176 11.2658 10.9588 11.6667 10.4355C12.0662 9.91489 12.3834 9.33386 12.6099 8.71711C12.8419 8.08251 12.971 7.41082 12.9957 6.73638C13.0204 6.0592 12.9381 5.37789 12.7527 4.72818ZM10.1042 4.74741C10.0974 4.76526 10.0864 4.78175 10.0713 4.79823C10.0672 4.80373 10.063 4.80785 10.0575 4.81197C10.0521 4.81746 10.0452 4.82433 10.0397 4.82982C9.81041 5.05921 9.58112 5.28861 9.35046 5.51937C8.93582 5.9342 8.51981 6.3504 8.10517 6.76523C7.65895 7.21165 7.21411 7.65669 6.76926 8.10174L5.8068 9.06463C5.7409 9.13057 5.67637 9.19925 5.60772 9.26381C5.51299 9.35309 5.37981 9.3627 5.27958 9.27205C5.24114 9.23633 5.20407 9.1965 5.167 9.15941C4.78256 8.77481 4.39676 8.38882 4.01232 8.00421C3.71576 7.70752 3.41782 7.40945 3.12126 7.11275C3.06085 7.05231 2.99769 6.99187 2.93865 6.93006C2.83293 6.81742 2.85627 6.68144 2.95788 6.57842C3.15146 6.38474 3.34368 6.19244 3.53727 5.99876C3.60317 5.93282 3.67732 5.83255 3.7693 5.80508C3.88464 5.76937 3.96701 5.84079 4.04115 5.91497C4.21003 6.08392 4.37753 6.25287 4.54641 6.42183C4.8416 6.71715 5.13679 7.01385 5.43198 7.30917C5.47729 7.26384 5.52397 7.21989 5.56928 7.17456C5.71756 7.02346 5.86859 6.87374 6.01824 6.72265C6.43837 6.30232 6.85851 5.882 7.27864 5.46168C7.68229 5.05784 8.08595 4.654 8.48823 4.25154C8.61729 4.12242 8.74772 3.9933 8.87678 3.86281C8.94131 3.79825 9.0182 3.6966 9.11156 3.67463C9.25023 3.64303 9.33261 3.7433 9.41774 3.82847C9.51796 3.92874 9.61819 4.03039 9.71979 4.13066L10.004 4.415C10.0246 4.4356 10.0466 4.4562 10.0672 4.47818C10.1413 4.55922 10.1495 4.65812 10.1042 4.74741Z" fill="#CCCCCC"/>
</svg>
