<svg width="14" height="16" viewBox="0 0 14 16" fill="none" xmlns="http://www.w3.org/2000/svg">
<path d="M9.03118 13.2716C9.04796 13.2716 9.06475 13.2716 9.06475 13.2716C9.33333 13.2716 9.56835 13.0526 9.58513 12.7832L9.95444 7.84842C9.97122 7.5621 9.753 7.30947 9.46763 7.27579C9.18225 7.25895 8.93046 7.47789 8.89688 7.76421L8.52758 12.6989C8.52758 13.0021 8.7458 13.2547 9.03118 13.2716Z" fill="#AAAAAA"/>
<path d="M6.47962 7.81475V12.7495C6.47962 13.0358 6.71463 13.2716 7 13.2716C7.28537 13.2716 7.52038 13.0358 7.52038 12.7495V7.81475C7.52038 7.52843 7.28537 7.29264 7 7.29264C6.71463 7.29264 6.47962 7.51159 6.47962 7.81475Z" fill="#AAAAAA"/>
<path d="M4.51559 7.27579C4.23022 7.29263 4.01199 7.54526 4.02878 7.84842L4.39808 12.7832C4.41487 13.0526 4.64988 13.2716 4.91847 13.2716C4.93525 13.2716 4.95204 13.2716 4.95204 13.2716C5.23741 13.2547 5.45564 13.0021 5.43885 12.6989L5.06954 7.76421C5.05276 7.47789 4.80096 7.25895 4.51559 7.27579Z" fill="#AAAAAA"/>
<path d="M14 3.73895C14 2.47579 12.1367 1.88632 10.3237 1.6V3.03158C11.482 3.23368 12.2374 3.52 12.506 3.73895C12.036 4.14316 10.0216 4.71579 7 4.71579C3.97842 4.71579 1.96403 4.12632 1.47722 3.73895C1.7458 3.52 2.51799 3.23368 3.65947 3.03158V1.6C1.84652 1.88632 0 2.47579 0 3.73895C0 4.36211 0.453237 4.81684 1.1247 5.15368L1.84652 14.1305C1.8801 15.9158 6.14389 16 7 16C7.85612 16 12.1199 15.9158 12.1703 14.1305L12.8921 5.15368C13.5635 4.81684 14 4.36211 14 3.73895ZM10.7602 13.9453C10.4412 14.1811 9.09832 14.5853 7 14.5853C4.90168 14.5853 3.55875 14.1811 3.23981 13.9453L2.58513 5.67579C4.41487 6.11368 6.59712 6.13053 7.01679 6.13053C7.41966 6.13053 9.61871 6.11368 11.4484 5.67579L10.7602 13.9453Z" fill="#AAAAAA"/>
<path d="M5.18705 3.58737C5.57314 3.58737 5.89209 3.26737 5.89209 2.88V1.41474H8.10791V2.88C8.10791 3.26737 8.42686 3.58737 8.81295 3.58737C9.19904 3.58737 9.51799 3.26737 9.51799 2.88V0.808421C9.51799 0.370526 9.16547 0 8.71223 0H5.27098C4.83453 0 4.46523 0.353684 4.46523 0.808421V2.89684C4.48202 3.28421 4.80096 3.58737 5.18705 3.58737Z" fill="#AAAAAA"/>
</svg>
