<svg width="19" height="20" viewBox="0 0 19 20"  xmlns="http://www.w3.org/2000/svg">
<path d="M9.5 0L5.81133 1.41004L14.2574 4.94576L18.3543 3.37984L9.5 0ZM4.5793 1.87769L0.645703 3.37984L9.5 6.75967L13.018 5.42049L4.5793 1.87769ZM0 4.11674V16.0985L9.025 19.4996V7.56036L0 4.11674ZM19 4.11674L14.725 5.74643V9.06958C14.7259 9.12967 14.7143 9.18933 14.6908 9.24509C14.6673 9.30085 14.6325 9.35161 14.5883 9.3944C14.5441 9.43719 14.4914 9.47118 14.4333 9.49437C14.3753 9.51757 14.3129 9.52951 14.25 9.52951C14.1871 9.52951 14.1247 9.51757 14.0667 9.49437C14.0086 9.47118 13.9559 9.43719 13.9117 9.3944C13.8675 9.35161 13.8327 9.30085 13.8092 9.24509C13.7857 9.18933 13.7741 9.12967 13.775 9.06958V6.1078L9.975 7.56036V19.4996L19 16.0985V4.11674Z"/>
</svg>
