<svg width="18" height="18" viewBox="0 0 18 18" fill="#000" xmlns="http://www.w3.org/2000/svg">
<path class="fill-good" d="M6.87317 10.6607H11.1268C12.0303 10.6607 12.925 10.839 13.7596 11.1853C14.5942 11.5316 15.3523 12.0393 15.9907 12.6791C16.6291 13.3189 17.1351 14.0784 17.4799 14.9142C17.8247 15.7499 18.0014 16.6455 18 17.5496H8.43692e-06C-0.00140716 16.6455 0.175328 15.7499 0.520103 14.9142C0.864878 14.0784 1.37093 13.3189 2.0093 12.6791C2.64767 12.0393 3.40584 11.5316 4.24043 11.1853C5.07503 10.839 5.96967 10.6607 6.87317 10.6607Z" fill="#B08F57"/>
<path class="fill-good" d="M9 10.1354C11.7968 10.1354 14.064 7.86648 14.064 5.06768C14.064 2.26888 11.7968 0 9 0C6.20322 0 3.93599 2.26888 3.93599 5.06768C3.93599 7.86648 6.20322 10.1354 9 10.1354Z" fill="#B08F57"/>
</svg>
