<svg width="30" height="27" viewBox="0 0 30 27" fill="none" xmlns="http://www.w3.org/2000/svg">
<path d="M26.25 14.7273C24.8977 14.7273 23.5819 14.2966 22.5 13.5C21.4249 14.3121 20.1065 14.7524 18.75 14.7524C17.3935 14.7524 16.0751 14.3121 15 13.5C13.9249 14.3121 12.6065 14.7524 11.25 14.7524C9.89353 14.7524 8.57512 14.3121 7.5 13.5C6.41815 14.2966 5.10231 14.7273 3.75 14.7273C3.33019 14.7277 2.91141 14.6866 2.5 14.6045V25.7727C2.5 26.0982 2.6317 26.4104 2.86612 26.6405C3.10054 26.8707 3.41848 27 3.75 27H12.5V19.6364H17.5V27H26.25C26.5815 27 26.8995 26.8707 27.1339 26.6405C27.3683 26.4104 27.5 26.0982 27.5 25.7727V14.6045C27.0886 14.6866 26.6698 14.7277 26.25 14.7273Z" fill="#CCCCCC"/>
<path d="M25 0H5L0 8.59091C0 9.56739 0.395088 10.5039 1.09835 11.1943C1.80161 11.8848 2.75544 12.2727 3.75 12.2727C4.74456 12.2727 5.69839 11.8848 6.40165 11.1943C7.10491 10.5039 7.5 9.56739 7.5 8.59091C7.5 9.56739 7.89509 10.5039 8.59835 11.1943C9.30161 11.8848 10.2554 12.2727 11.25 12.2727C12.2446 12.2727 13.1984 11.8848 13.9017 11.1943C14.6049 10.5039 15 9.56739 15 8.59091C15 9.56739 15.3951 10.5039 16.0983 11.1943C16.8016 11.8848 17.7554 12.2727 18.75 12.2727C19.7446 12.2727 20.6984 11.8848 21.4017 11.1943C22.1049 10.5039 22.5 9.56739 22.5 8.59091C22.5 9.56739 22.8951 10.5039 23.5983 11.1943C24.3016 11.8848 25.2554 12.2727 26.25 12.2727C27.2446 12.2727 28.1984 11.8848 28.9017 11.1943C29.6049 10.5039 30 9.56739 30 8.59091L25 0Z" fill="#CCCCCC"/>
</svg>
