<svg width="10" height="10" viewBox="0 0 10 10" fill="none" xmlns="http://www.w3.org/2000/svg">
<path d="M9.24263 2.1716C9.63316 1.78108 9.63316 1.14791 9.24263 0.757387C8.85211 0.366862 8.21895 0.366862 7.82842 0.757387L9.24263 2.1716ZM0.757366 7.82847C0.366842 8.21899 0.366843 8.85216 0.757366 9.24268C1.14789 9.63321 1.78105 9.63321 2.17158 9.24268L0.757366 7.82847ZM7.82842 9.24268C8.21895 9.63321 8.85211 9.63321 9.24263 9.24268C9.63316 8.85216 9.63316 8.21899 9.24263 7.82847L7.82842 9.24268ZM2.17158 0.757387C1.78105 0.366862 1.14789 0.366862 0.757366 0.757387C0.366843 1.14791 0.366843 1.78108 0.757366 2.1716L2.17158 0.757387ZM7.82842 0.757387L0.757366 7.82847L2.17158 9.24268L9.24263 2.1716L7.82842 0.757387ZM9.24263 7.82847L2.17158 0.757387L0.757366 2.1716L7.82842 9.24268L9.24263 7.82847Z" fill="#AAAAAA"/>
</svg>
