<svg width="33" height="27" viewBox="0 0 33 27" fill="none" xmlns="http://www.w3.org/2000/svg">
<path d="M27.4722 3.9548C27.2638 3.62348 26.9762 3.35075 26.6361 3.16186C26.296 2.97296 25.9143 2.874 25.5264 2.87414H21.0657V2.06621C21.0657 1.5183 20.8508 0.992842 20.4682 0.605417C20.0856 0.217992 19.5667 0.00033823 19.0256 0.00033823H1.59722C1.20942 -0.00776285 0.832399 0.129907 0.538949 0.386771C0.245499 0.643634 0.0564259 1.00148 0.00823061 1.39122C-0.0139458 1.60649 0.00881341 1.82408 0.075032 2.02987C0.141251 2.23567 0.249449 2.42507 0.39261 2.58578C0.535772 2.7465 0.710697 2.87495 0.906041 2.96281C1.10138 3.05066 1.31278 3.09594 1.52653 3.09573H8.17874C8.46675 3.08791 8.7508 3.16493 8.99641 3.31742C9.24202 3.46992 9.43863 3.69134 9.56238 3.9548C9.67002 4.19112 9.71736 4.45101 9.70005 4.71066C9.68274 4.97031 9.60133 5.22141 9.46329 5.44092C9.32525 5.66043 9.135 5.84134 8.90998 5.96705C8.68496 6.09277 8.43237 6.15926 8.17538 6.16044H1.59722C1.20736 6.15271 0.82862 6.29228 0.534851 6.55194C0.241083 6.8116 0.053342 7.17275 0.00823061 7.56496C-0.0139458 7.78023 0.00881341 7.99782 0.075032 8.20362C0.141251 8.40941 0.249449 8.59881 0.39261 8.75953C0.535772 8.92025 0.710697 9.0487 0.906041 9.13655C1.10138 9.2244 1.31278 9.26968 1.52653 9.26947H4.68767C5.07433 9.26307 5.4497 9.40151 5.74172 9.65822C6.03375 9.91492 6.22185 10.2718 6.26993 10.6604C6.29211 10.8756 6.26935 11.0932 6.20313 11.299C6.13691 11.5048 6.02871 11.6942 5.88555 11.8549C5.74239 12.0156 5.56747 12.1441 5.37212 12.2319C5.17678 12.3198 4.96538 12.3651 4.75164 12.3649H1.69148C1.30483 12.3585 0.929462 12.4969 0.637436 12.7536C0.345411 13.0103 0.157305 13.3672 0.109226 13.7557C0.0870494 13.971 0.109809 14.1886 0.176027 14.3944C0.242246 14.6002 0.350445 14.7896 0.493606 14.9503C0.636767 15.111 0.811692 15.2395 1.00704 15.3273C1.20238 15.4152 1.41378 15.4605 1.62752 15.4603H2.826V21.4601C2.826 22.0433 3.05477 22.6026 3.46198 23.0149C3.8692 23.4273 4.4215 23.659 4.99739 23.659H6.47866C6.83014 24.6448 7.47532 25.4957 8.32504 26.0942C9.17476 26.6927 10.1871 27.0091 11.2221 26.9998C12.2534 26.9947 13.2588 26.6726 14.1053 26.076C14.9517 25.4794 15.5993 24.6365 15.9621 23.659H20.0861C20.438 24.6445 21.0833 25.4952 21.9329 26.0936C22.7825 26.692 23.7946 27.0086 24.8295 26.9998C25.8608 26.9947 26.8662 26.6726 27.7127 26.076C28.5591 25.4794 29.2067 24.6365 29.5695 23.659H30.8286C31.4045 23.659 31.9568 23.4273 32.364 23.0149C32.7712 22.6026 33 22.0433 33 21.4601V13.7728C32.9998 13.1061 32.8117 12.4533 32.458 11.891L27.4722 3.9548ZM11.2221 23.7953C10.7202 23.7944 10.2392 23.5924 9.88402 23.2334C9.52887 22.8744 9.3285 22.3876 9.32672 21.8794C9.33884 21.3759 9.54293 20.8966 9.89625 20.542C10.2496 20.1874 10.7247 19.985 11.2221 19.9772C11.4775 19.9663 11.7324 20.0078 11.9715 20.0993C12.2107 20.1907 12.4291 20.3302 12.6136 20.5094C12.7981 20.6885 12.945 20.9036 13.0453 21.1417C13.1456 21.3798 13.1973 21.6359 13.1973 21.8948C13.1973 22.1536 13.1456 22.4098 13.0453 22.6479C12.945 22.886 12.7981 23.1011 12.6136 23.2802C12.4291 23.4594 12.2107 23.5988 11.9715 23.6903C11.7324 23.7817 11.4775 23.8233 11.2221 23.8124V23.7953ZM24.8329 23.7953C24.328 23.7935 23.8444 23.5897 23.4875 23.2282C23.1305 22.8667 22.9292 22.377 22.9274 21.8658C22.9352 21.3565 23.1385 20.8703 23.4941 20.5102C23.8498 20.15 24.3299 19.9442 24.8329 19.9363C25.3377 19.9381 25.8213 20.142 26.1782 20.5034C26.5352 20.8649 26.7365 21.3546 26.7383 21.8658C26.7339 22.378 26.5318 22.8682 26.175 23.2314C25.8183 23.5945 25.3353 23.8018 24.8295 23.809L24.8329 23.7953ZM28.4821 12.624H21.766C21.6544 12.624 21.5473 12.5791 21.4684 12.4991C21.3895 12.4192 21.3452 12.3108 21.3452 12.1978V6.58998C21.3452 6.47696 21.3895 6.36858 21.4684 6.28866C21.5473 6.20875 21.6544 6.16385 21.766 6.16385H24.9574C25.028 6.16384 25.0975 6.18197 25.1593 6.21655C25.2212 6.25113 25.2733 6.30103 25.3109 6.36158L28.8356 11.9728C28.8751 12.0371 28.8969 12.1108 28.8989 12.1864C28.9009 12.262 28.883 12.3368 28.847 12.4031C28.811 12.4694 28.7583 12.5248 28.6942 12.5636C28.63 12.6024 28.5569 12.6233 28.4821 12.624Z" fill="#CCCCCC"/>
</svg>
