<svg width="24" height="20" viewBox="0 0 24 20" fill="none" xmlns="http://www.w3.org/2000/svg">
<path fill-rule="evenodd" clip-rule="evenodd" d="M22 10.9147H21H18V8.93024H21H22V10.9147ZM13.707 6.65501L11.707 8.63951C11.512 8.833 11.256 8.93024 11 8.93024C10.744 8.93024 10.488 8.833 10.293 8.63951L8.293 6.65501C7.902 6.26704 7.902 5.63994 8.293 5.25197L10.293 3.26747C10.684 2.87951 11.316 2.87951 11.707 3.26747L13.707 5.25197C14.098 5.63994 14.098 6.26704 13.707 6.65501ZM13.707 14.593L11.707 16.5775C11.512 16.771 11.256 16.8682 11 16.8682C10.744 16.8682 10.488 16.771 10.293 16.5775L8.293 14.593C7.902 14.205 7.902 13.5779 8.293 13.19L10.293 11.2055C10.684 10.8175 11.316 10.8175 11.707 11.2055L13.707 13.19C14.098 13.5779 14.098 14.205 13.707 14.593ZM22.332 6.94574H22V2.39926C22 1.07659 20.915 0 19.582 0H2.418C1.085 0 0 1.07659 0 2.39926V17.4457C0 18.7684 1.085 19.845 2.418 19.845H19.582C20.915 19.845 22 18.7684 22 17.4457V12.8992H22.332C23.252 12.8992 24 12.157 24 11.2442V8.60081C24 7.68794 23.252 6.94574 22.332 6.94574Z" fill="#FCB415"/>
</svg>
