<svg width="20" height="24" viewBox="0 0 20 24" fill="none" xmlns="http://www.w3.org/2000/svg">
<path fill-rule="evenodd" clip-rule="evenodd" d="M9.9999 1.98449C13.4629 1.98449 12.9999 4.96122 12.9999 6.94571H6.9999C6.9999 4.96122 6.5379 1.98449 9.9999 1.98449ZM5.0739 8.52635C5.0929 8.5581 5.1089 8.59085 5.1389 8.62161C5.2259 8.71289 5.3319 8.78037 5.4439 8.83196L9.9999 12.5995L14.5549 8.83296C14.6679 8.78136 14.7739 8.71289 14.8609 8.62161C14.8909 8.59085 14.9069 8.5581 14.9259 8.52635L16.8379 6.94571H14.9639C14.8719 4.11484 14.6399 0 9.9999 0C5.3599 0 5.1279 4.11484 5.0359 6.94571H3.1619L5.0739 8.52635Z" fill="#FCB415"/>
<path fill-rule="evenodd" clip-rule="evenodd" d="M18.412 8.22719L10.64 14.654C10.454 14.8068 10.227 14.8832 10 14.8832C9.772 14.8832 9.545 14.8068 9.36 14.654L1.551 8.19643C0.526 9.72845 0 11.6346 0 13.8909C0 19.3631 4.486 23.8134 10 23.8134C15.514 23.8134 20 19.3631 20 13.8909C20 11.9114 19.403 9.83859 18.412 8.22719Z" fill="#FCB415"/>
</svg>
