<svg width="17" height="16" viewBox="0 0 17 16" fill="none" xmlns="http://www.w3.org/2000/svg">
<path d="M5.80267 13.7632C5.80267 14.6791 5.06866 15.4213 4.16327 15.4213C3.25788 15.4213 2.52387 14.6791 2.52387 13.7632C2.52387 12.8477 3.25788 12.1051 4.16327 12.1051C5.06866 12.1053 5.80267 12.8477 5.80267 13.7632ZM12.5253 12.1057C11.6201 12.1057 10.8861 12.8479 10.8861 13.7634C10.8861 14.6793 11.6201 15.4215 12.5253 15.4215C13.4307 15.4215 14.1649 14.6793 14.1649 13.7634C14.1649 12.8477 13.4307 12.1057 12.5253 12.1057ZM15.7156 0.638428H5.33552H5.13443L0.435068 0.64004C0.201096 0.638428 0.00758091 0.829714 0.00598655 1.06655L7.67634e-06 1.72346C-0.00138739 1.9603 0.187544 2.15602 0.421715 2.15763L2.72038 2.17879L2.93342 2.18041H2.93482L3.02928 2.18182H3.03387C3.20646 2.20762 3.33839 2.35637 3.33839 2.53698V2.55371L3.32484 2.63111L3.30531 2.75265L2.34052 8.77565C2.21297 9.59965 2.78316 10.2749 3.60843 10.2749H14.1834C15.0087 10.2749 15.7889 9.59945 15.9179 8.77565L16.9817 2.13788C17.111 1.31226 16.5411 0.638428 15.7156 0.638428Z" fill="white"/>
</svg>
