<svg width="20" height="21" viewBox="0 0 20 21" fill="none" xmlns="http://www.w3.org/2000/svg">
<path d="M19.6677 18.9354L14.7627 14.0245C17.2289 10.8147 16.9823 6.17816 14.0229 3.24264C12.4062 1.62398 10.3236 0.828369 8.2137 0.828369C6.10376 0.828369 4.02122 1.62398 2.40451 3.24264C-0.801504 6.45251 -0.801504 11.6651 2.40451 14.875C4.02122 16.4937 6.10376 17.2893 8.2137 17.2893C9.96742 17.2893 11.7211 16.7406 13.1734 15.6157L18.1058 20.4992C18.325 20.7186 18.599 20.8284 18.9004 20.8284C19.1744 20.8284 19.4759 20.7186 19.6951 20.4992C20.1061 20.0876 20.1061 19.3743 19.6677 18.9354ZM8.2411 15.0671C6.62439 15.0671 5.1447 14.4361 3.99382 13.3112C1.66466 10.9793 1.66466 7.16582 3.99382 4.80642C5.11729 3.68159 6.62439 3.05059 8.2411 3.05059C9.85781 3.05059 11.3375 3.68159 12.4884 4.80642C13.6393 5.93125 14.2421 7.44017 14.2421 9.05882C14.2421 10.6775 13.6119 12.159 12.4884 13.3112C11.3649 14.4635 9.83041 15.0671 8.2411 15.0671Z" fill="#401E17"/>
</svg>
