<svg width="27" height="25" viewBox="0 0 27 25" fill="none" xmlns="http://www.w3.org/2000/svg">
<path fill-rule="evenodd" clip-rule="evenodd" d="M1.467 7.52971L21.179 2.94345L20.9058 1.70734C20.8299 1.3555 20.484 1.13445 20.1441 1.21227L1.67032 5.48099C1.32737 5.55884 1.11189 5.91069 1.18774 6.26251C1.2818 6.68282 1.37289 7.10939 1.467 7.52971ZM1.30309 4.36011L20.0105 0.0415862C20.9028 -0.163891 21.792 0.412093 21.9924 1.3275L23.9529 10.2167H22.7815L21.8922 6.1909L2.18016 10.7772L3.40023 16.2975L3.50948 16.7864C3.55197 16.9826 3.74318 17.1102 3.93741 17.0635L4.08306 17.0292V18.2062L4.06181 18.2127C3.3213 18.3839 2.58382 17.9013 2.41386 17.1447L0.0435662 6.39666C-0.0566025 5.93895 0.0162634 5.5093 0.259047 5.11077C0.501831 4.71222 0.856943 4.46312 1.30305 4.36037L1.30309 4.36011ZM6.15899 10.5374C5.24549 10.5374 4.50191 11.3034 4.50191 12.2406V23.3C4.50191 24.2372 5.24549 25 6.15899 25H25.3399C26.2534 25 27 24.2341 27 23.3V12.2406C27 11.3034 26.2534 10.5374 25.3399 10.5374H6.15899ZM24.9363 15.488C24.9363 14.7376 24.9363 13.9873 24.9363 13.2369C24.9363 13.0906 24.8239 12.9754 24.6813 12.9754C23.0455 12.9754 21.4096 12.9754 19.7738 12.9754C19.6342 12.9754 19.5189 13.0937 19.5189 13.2369C19.5189 13.9873 19.5189 14.7376 19.5189 15.488C19.5189 15.6313 19.6342 15.7496 19.7738 15.7496C21.4096 15.7496 23.0455 15.7496 24.6813 15.7496C24.8179 15.7496 24.9363 15.6344 24.9363 15.488ZM21.3186 22.313C21.176 22.313 21.0606 22.1947 21.0606 22.0514V21.5284C21.0606 21.3851 21.176 21.2668 21.3186 21.2668H24.6783C24.8179 21.2668 24.9332 21.3851 24.9332 21.5284V22.0514C24.9332 22.1947 24.8179 22.313 24.6783 22.313H21.3186ZM16.6296 22.313C16.49 22.313 16.3747 22.1947 16.3747 22.0514V21.5315C16.3747 21.3851 16.49 21.2699 16.6296 21.2699H19.9923C20.1319 21.2699 20.2473 21.3882 20.2473 21.5315V22.0514C20.2473 22.1947 20.1319 22.313 19.9923 22.313H16.6296ZM11.9436 22.313C11.804 22.313 11.6887 22.1947 11.6887 22.0514V21.5315C11.6887 21.3851 11.804 21.2699 11.9436 21.2699H15.3064C15.4459 21.2699 15.5613 21.3882 15.5613 21.5315V22.0514C15.5613 22.1947 15.4459 22.313 15.3064 22.313H11.9436ZM7.25764 22.313C7.11806 22.313 7.0027 22.1947 7.0027 22.0514V21.5315C7.0027 21.3851 7.11806 21.2699 7.25764 21.2699H10.6204C10.76 21.2699 10.8753 21.3882 10.8753 21.5315V22.0514C10.8753 22.1947 10.76 22.313 10.6204 22.313H7.25764Z" fill="#CCCCCC"/>
</svg>
