<svg width="24" height="20" viewBox="0 0 24 20" fill="none" xmlns="http://www.w3.org/2000/svg">
<path d="M24 16.875C24 16.9571 23.9846 17.0384 23.9544 17.1142C23.9243 17.1901 23.8801 17.259 23.8244 17.317C23.7686 17.3751 23.7025 17.4211 23.6297 17.4525C23.5569 17.4839 23.4788 17.5 23.4 17.5H0.6C0.44087 17.5 0.288258 17.4342 0.175736 17.3169C0.0632142 17.1997 0 17.0408 0 16.875C0 16.7092 0.0632142 16.5503 0.175736 16.4331C0.288258 16.3158 0.44087 16.25 0.6 16.25H23.4C23.4788 16.25 23.5569 16.2661 23.6297 16.2975C23.7025 16.3289 23.7686 16.3749 23.8244 16.433C23.8801 16.491 23.9243 16.5599 23.9544 16.6358C23.9846 16.7116 24 16.7929 24 16.875ZM24 19.375C24 19.4571 23.9846 19.5384 23.9544 19.6142C23.9243 19.6901 23.8801 19.759 23.8244 19.817C23.7686 19.8751 23.7025 19.9211 23.6297 19.9525C23.5569 19.9839 23.4788 20 23.4 20H0.6C0.44087 20 0.288258 19.9342 0.175736 19.8169C0.0632142 19.6997 0 19.5408 0 19.375C0 19.2092 0.0632142 19.0503 0.175736 18.9331C0.288258 18.8158 0.44087 18.75 0.6 18.75H23.4C23.4788 18.75 23.5569 18.7661 23.6297 18.7975C23.7025 18.8289 23.7686 18.8749 23.8244 18.933C23.8801 18.991 23.9243 19.0599 23.9544 19.1358C23.9846 19.2116 24 19.2929 24 19.375Z" fill="#CCCCCC"/>
<path d="M0 2.5V12.5C0 13.163 0.252856 13.7989 0.702944 14.2678C1.15303 14.7366 1.76348 15 2.4 15H21.6C22.2365 15 22.847 14.7366 23.2971 14.2678C23.7471 13.7989 24 13.163 24 12.5V2.5C24 1.83696 23.7471 1.20107 23.2971 0.732233C22.847 0.263392 22.2365 0 21.6 0H2.4C1.76348 0 1.15303 0.263392 0.702944 0.732233C0.252856 1.20107 0 1.83696 0 2.5ZM4.13935 13.75C4.01437 12.9853 3.6644 12.2799 3.13783 11.7314C2.61127 11.1829 1.93411 10.8184 1.2 10.6882V8.81303C2.41075 8.95311 3.53966 9.51828 4.40106 10.4156C5.26245 11.3128 5.80501 12.4888 5.9395 13.75H4.13935ZM1.2 6.18698V4.31183C1.93411 4.18163 2.61127 3.81708 3.13783 3.26858C3.6644 2.72007 4.01437 2.0147 4.13935 1.25H5.9395C5.80501 2.51119 5.26245 3.68715 4.40106 4.58443C3.53966 5.48172 2.41075 6.04689 1.2 6.18698ZM12 11.25C11.288 11.25 10.592 11.0301 9.99995 10.618C9.40793 10.206 8.94651 9.62029 8.67403 8.93506C8.40156 8.24984 8.33027 7.49584 8.46917 6.76841C8.60808 6.04098 8.95095 5.3728 9.45442 4.84835C9.95788 4.3239 10.5993 3.96675 11.2977 3.82206C11.996 3.67736 12.7198 3.75162 13.3777 4.03545C14.0355 4.31928 14.5977 4.79993 14.9933 5.41661C15.3889 6.0333 15.6 6.75832 15.6 7.5C15.5989 8.49421 15.2193 9.44738 14.5444 10.1504C13.8695 10.8534 12.9544 11.2489 12 11.25ZM22.8 10.6882C22.0659 10.8184 21.3887 11.1829 20.8622 11.7314C20.3356 12.2799 19.9856 12.9853 19.8606 13.75H18.0605C18.195 12.4888 18.7376 11.3128 19.5989 10.4156C20.4603 9.51828 21.5893 8.95311 22.8 8.81303V10.6882ZM22.8 6.18693C21.5893 6.04684 20.4604 5.48168 19.599 4.5844C18.7376 3.68713 18.195 2.51118 18.0605 1.25H19.8606C19.9856 2.0147 20.3356 2.72007 20.8622 3.26858C21.3887 3.81708 22.0659 4.18163 22.8 4.31183V6.18693Z" fill="#CCCCCC"/>
</svg>
