<svg width="28" height="29" viewBox="0 0 28 29" fill="none" xmlns="http://www.w3.org/2000/svg">
<path d="M27.025 11.5571C26.9711 11.4783 15.0208 0.390147 15.0208 0.390147C14.4588 -0.130049 13.5403 -0.130049 12.9783 0.390147C12.9783 0.390147 1.02706 11.4783 0.974093 11.5571C0.385148 12.0429 0 12.7733 0 13.6017V26.351C0 27.8128 1.17609 29 2.62511 29H25.3749C26.8239 29 28 27.8128 28 26.351V13.6017C27.9991 12.7733 27.614 12.0429 27.025 11.5571ZM24.7859 15.8338L15.1896 20.3298C14.5351 20.6361 13.464 20.6361 12.8104 20.3298L3.21226 15.8338V13.2709C3.21226 12.5395 3.79941 11.9459 4.52482 11.9459H23.4725C24.1979 11.9459 24.785 12.5395 24.785 13.2709V15.8338H24.7859Z" fill="#CCCCCC"/>
</svg>
