<svg width="22" height="27" viewBox="0 0 22 27" fill="none" xmlns="http://www.w3.org/2000/svg">
<path d="M0.9152 0C0.528 0 0 0.313548 0 0.696774V24.0387C0 24.0735 0.2464 24.4568 0.3872 24.631L2.0416 26.7213C2.1824 26.8955 2.3936 27 2.6048 27C2.816 27 3.0272 26.8955 3.168 26.7213L4.2944 25.3277L5.4208 26.7213C5.5616 26.8955 5.7728 27 5.984 27C6.1952 27 6.4064 26.8955 6.5472 26.7213L7.6736 25.3277L8.8 26.7213C9.0816 27.0697 9.6448 27.0697 9.8912 26.7213L11.0176 25.3277L12.144 26.7213C12.4256 27.0697 12.9888 27.0697 13.2352 26.7213L14.3616 25.3277L15.488 26.7213C15.6288 26.8955 15.84 27 16.0512 27C16.2624 27 16.4736 26.8955 16.6144 26.7213L17.7408 25.3277L18.8672 26.7213C19.1488 27.0697 19.712 27.0697 19.9584 26.7213L21.6128 24.631C21.7536 24.4568 22 23.7252 22 23.6903V0.696774C22 0.313548 21.472 0 21.0848 0H0.9152ZM5.28 4.87742H15.84C16.2272 4.87742 16.544 5.22581 16.544 5.60903C16.544 5.99226 16.2272 6.30581 15.84 6.30581H5.28C4.8928 6.30581 4.576 5.99226 4.576 5.60903C4.576 5.22581 4.8928 4.87742 5.28 4.87742ZM15.84 19.1613H5.28C4.8928 19.1613 4.576 18.7781 4.576 18.3948C4.576 18.0116 4.8928 17.6981 5.28 17.6981H15.84C16.2272 17.6981 16.544 18.0116 16.544 18.3948C16.544 18.7781 16.2272 19.1613 15.84 19.1613ZM15.84 14.6323H5.28C4.8928 14.6323 4.576 14.249 4.576 13.8658C4.576 13.4826 4.8928 13.169 5.28 13.169H15.84C16.2272 13.169 16.544 13.4826 16.544 13.8658C16.544 14.249 16.2272 14.6323 15.84 14.6323ZM16.544 9.75484C16.544 10.4516 15.7696 10.4865 15.84 10.4516H5.28C4.8928 10.4516 4.576 10.1381 4.576 9.75484C4.576 9.37161 4.8928 9.05806 5.28 9.05806H15.84C16.2272 9.05806 16.544 9.37161 16.544 9.75484Z" fill="#CCCCCC"/>
</svg>
