<svg width="24" height="24" viewBox="0 0 24 24" fill="none" xmlns="http://www.w3.org/2000/svg">
<path d="M12 0C5.37857 0 0 5.37857 0 12C0 18.6214 5.37857 24 12 24C18.6214 24 24 18.6214 24 12C24 5.37857 18.6429 0 12 0ZM19.0071 16.7357C18.9214 17.2714 18.0214 17.1643 17.25 17.2071C16.5214 17.2286 15.8143 17.1857 15.4929 17.0571C14.9571 16.8429 13.5643 14.9786 13.1786 15.0643C12.3643 15.2143 12.6643 16.95 12.4071 17.0571C12.0643 17.2286 10.9286 17.1857 10.4786 17.1429C8.16429 16.7571 6.83571 15.2143 5.57143 13.2214C4.02857 10.8 3.10714 8.97857 3.49286 8.76429C3.92143 8.52857 5.12143 8.57143 6.34286 8.61429C6.70714 8.61429 7.75714 11.25 8.03571 11.6786C9.12857 13.4357 9.47143 12.1286 9.49286 11.9786C9.79286 8.82857 9.02143 8.95714 8.57143 8.91429C8.91429 7.88571 11.25 8.07857 11.25 8.07857C11.25 8.07857 12.0429 8.27143 12.3214 8.46429C12.45 8.55 12.5786 8.80714 12.5571 9.62143C12.5143 10.8429 12.4071 12.5357 12.9429 12.5357C13.35 12.5357 14.0143 11.55 14.55 10.5429C15.0214 9.64286 15.3857 8.76429 15.5571 8.7C15.7286 8.63571 16.4786 8.63571 17.25 8.61429C18 8.61429 18.75 8.61429 18.9429 8.76429C19.3286 9.08571 18.6429 10.1786 18.0214 11.0571C17.5071 11.7857 16.5 12.75 16.5643 13.2857C16.6286 13.9929 19.2 15.5357 19.0071 16.7357Z" fill="#CCCCCC"/>
</svg>
