<svg width="24" height="24" viewBox="0 0 24 24" fill="none" xmlns="http://www.w3.org/2000/svg">
<path d="M15.75 10.95C15.8357 11.2929 15.9 11.6358 15.9 12C15.9 14.1429 14.1643 15.8786 12.0214 15.8786C9.87857 15.8786 8.12143 14.1429 8.12143 12C8.12143 11.6358 8.16428 11.2715 8.27143 10.95C8.31428 10.8215 8.35714 10.6715 8.4 10.5429H6.27857V16.35C6.27857 17.1 6.9 17.7215 7.65 17.7215H16.3714C17.1214 17.7215 17.7429 17.1 17.7429 16.35V10.5643H15.6214C15.6643 10.6715 15.7071 10.8 15.75 10.95Z" fill="#CCCCCC"/>
<path d="M12 14.5071C13.3714 14.5071 14.5071 13.3928 14.5071 12C14.5071 11.55 14.3786 11.1428 14.1857 10.7785C14.1429 10.6928 14.1 10.6071 14.0357 10.5428C13.5857 9.92139 12.8357 9.49282 12 9.49282C11.1643 9.49282 10.4357 9.89996 9.96428 10.5428C9.9 10.6285 9.85714 10.6928 9.81428 10.7785C9.6 11.1428 9.49286 11.55 9.49286 12C9.49286 13.3928 10.6286 14.5071 12 14.5071Z" fill="#CCCCCC"/>
<path d="M17.4643 8.93571V6.53571H15.0643V8.95714L17.4643 8.93571Z" fill="#CCCCCC"/>
<path d="M12 0C5.37857 0 0 5.37857 0 12C0 18.6214 5.37857 24 12 24C18.6214 24 24 18.6214 24 12C24 5.37857 18.6429 0 12 0ZM19.1143 16.3714C19.1143 17.8929 17.8714 19.1143 16.3714 19.1143H7.65C6.12857 19.1143 4.90714 17.8714 4.90714 16.3714V7.65C4.90714 6.12857 6.15 4.90714 7.65 4.90714H16.3714C17.8929 4.90714 19.1143 6.15 19.1143 7.65V16.3714Z" fill="#CCCCCC"/>
</svg>
